<?xml version="1.0" encoding="UTF-8"?>
<svg width="100pt" height="100pt" version="1.1" viewBox="0 0 100 100" xmlns="http://www.w3.org/2000/svg">
 <g>
  <path d="m92.191 7.8125c-10.414-10.414-27.301-10.414-37.711 0l-14.879 14.875c1.1797-0.12891 2.3672-0.18359 3.5625-0.18359 3.7656 0 7.4258 0.59766 10.895 1.75l8.4297-8.4297c2.8945-2.8984 6.7461-4.4922 10.844-4.4922 4.0938 0 7.9453 1.5938 10.844 4.4922 2.8945 2.8945 4.4883 6.7383 4.4883 10.84 0 4.0938-1.5938 7.9453-4.4883 10.84l-16.496 16.496c-2.8984 2.8984-6.75 4.4922-10.844 4.4922-4.1016 0-7.9453-1.5938-10.844-4.4922-1.4102-1.4023-2.5078-3.0391-3.2656-4.8203-1.8789 0.10547-3.6367 0.88672-4.9805 2.2266l-4.3945 4.3984c1.2031 2.2266 2.7461 4.3281 4.625 6.2148 10.414 10.414 27.301 10.414 37.715 0l16.5-16.504c10.41-10.41 10.41-27.293 0-37.703z"/>
  <path d="m57.012 77.492c-3.7734 0-7.4688-0.60938-11.016-1.8125l-8.4883 8.4883c-2.8945 2.8984-6.7422 4.4922-10.84 4.4922-4.0938 0-7.9414-1.5938-10.84-4.4922-2.8984-2.8945-4.4922-6.7422-4.4922-10.84 0-4.0938 1.5938-7.9453 4.4922-10.844l16.496-16.496c2.8984-2.8945 6.7422-4.4844 10.84-4.4844 4.1016 0 7.9453 1.5938 10.844 4.4844 1.4102 1.4102 2.5117 3.0469 3.2734 4.8281 1.8867-0.097656 3.6484-0.88672 4.9883-2.2266l4.3867-4.3945c-1.2031-2.2344-2.75-4.332-4.6328-6.2188-10.414-10.414-27.301-10.414-37.711 0l-16.496 16.504c-10.418 10.414-10.418 27.293 0 37.711 10.414 10.414 27.293 10.414 37.707 0l14.855-14.855c-1.1094 0.10156-2.2266 0.16016-3.3555 0.16016z"/>
 </g>
</svg>
