<svg xmlns="http://www.w3.org/2000/svg" width="20px" fill="#f4f4f4" fill-opacity="0.5" viewBox="0 0 68.52 52.38"><title>Asset 1</title><g id="Layer_2" data-name="Layer 2"><g id="Layer_1-2" data-name="Layer 1"><path d="M68.52,48.23V4.14A4.14,4.14,0,0,0,64.37,0H4.14A4.14,4.14,0,0,0,0,4.14V48.23a4.14,4.14,0,0,0,4.14,4.15H64.37a4.2,4.2,0,0,0,4.15-4.15ZM4.14,3.53H64.38a.59.59,0,0,1,.61.61v8H3.44v-8a.67.67,0,0,1,.7-.61Zm-.7,44.7V15.79H65V48.23a.6.6,0,0,1-.62.62H4.14a.68.68,0,0,1-.7-.62ZM9.88,11A3.09,3.09,0,1,0,6.79,7.94,3.06,3.06,0,0,0,9.88,11Zm0-3.52a.41.41,0,0,1,.44.44.42.42,0,0,1-.44.44.48.48,0,0,1-.45-.44A.47.47,0,0,1,9.88,7.5ZM17.11,11A3.09,3.09,0,1,0,14,7.94,3.06,3.06,0,0,0,17.11,11Zm0-3.52a.41.41,0,0,1,.44.44.45.45,0,1,1-.44-.44Zm9.34,18.43-5.64,5.73,5.64,5.64a1.7,1.7,0,0,1,0,2.47,1.74,1.74,0,0,1-1.23.53A1.78,1.78,0,0,1,24,39.77l-6.87-6.88a1.7,1.7,0,0,1,0-2.47l7-7a1.7,1.7,0,0,1,2.47,0,1.78,1.78,0,0,1-.09,2.47Zm24.87,4.49a1.7,1.7,0,0,1,0,2.47l-6.88,6.88a1.74,1.74,0,0,1-1.23.53A1.76,1.76,0,0,1,42,39.77a1.72,1.72,0,0,1,0-2.47l5.65-5.64L42,25.93a1.75,1.75,0,0,1,2.47-2.47ZM37.74,24.87l-4.32,14.2a1.76,1.76,0,0,1-1.67,1.23,1.1,1.1,0,0,1-.53-.09A1.65,1.65,0,0,1,30.07,38l4.33-14.2a1.65,1.65,0,0,1,2.2-1.15,1.79,1.79,0,0,1,1.14,2.21Z"/></g></g></svg>