<svg xmlns="http://www.w3.org/2000/svg" width="14px" height="14px" fill="#ff9300" viewBox="0 0 89.1 89.1"><title>Asset 1</title><g id="Layer_2" data-name="Layer 2"><g id="Layer_1-2" data-name="Layer 1"><path d="M39.77,28.74a2,2,0,0,1,.58-1.39,2,2,0,0,1,1.38-.57H57.92a3.63,3.63,0,0,1,1.49.35,4.8,4.8,0,0,1,2.88,3.74,4.22,4.22,0,0,1,0,.62V84.39a3.58,3.58,0,0,1-.25,1.51,4.78,4.78,0,0,1-3.85,3.16,3.13,3.13,0,0,1-.61,0H4.71a3.8,3.8,0,0,1-1.51-.25A4.79,4.79,0,0,1,0,85a4.21,4.21,0,0,1,0-.62V31.49A3.76,3.76,0,0,1,.25,30,4.78,4.78,0,0,1,4.1,26.82a4.4,4.4,0,0,1,.62,0H21.27a1.95,1.95,0,0,1,1.95,2v5.52a1.95,1.95,0,0,1-1.95,2H9.44V79.67H52.89V36.22H41.73a2,2,0,0,1-2-2Z"/><path d="M49.33,60.37a2,2,0,0,1-.58,1.38,1.92,1.92,0,0,1-1.38.57H31.18A3.91,3.91,0,0,1,29.69,62a4.77,4.77,0,0,1-2.87-3.75,3.13,3.13,0,0,1,0-.61V4.71A3.8,3.8,0,0,1,27,3.2,4.79,4.79,0,0,1,30.88,0a4.21,4.21,0,0,1,.62,0H84.39A3.76,3.76,0,0,1,85.9.25,4.78,4.78,0,0,1,89.06,4.1a4.4,4.4,0,0,1,0,.62V57.61a3.82,3.82,0,0,1-.25,1.52A4.81,4.81,0,0,1,85,62.29a4.22,4.22,0,0,1-.62,0H67.84a1.95,1.95,0,0,1-2-2V54.84a2,2,0,0,1,2-2H79.66V9.43H36.21V52.88H47.37a2,2,0,0,1,2,2v5.53Z"/></g></g></svg>